<svg width="64" height="64" viewBox="0 0 64 64" fill="none" xmlns="http://www.w3.org/2000/svg">
<g clip-path="url(#clip0_9538_20480)">
<rect width="64" height="64" rx="10" fill="white"/>
<g clip-path="url(#clip1_9538_20480)">
<rect width="64" height="64" fill="white"/>
<rect x="64" y="64" width="64" height="64" transform="rotate(-180 64 64)" fill="#CDE2FC"/>
<mask id="mask0_9538_20480" style="mask-type:alpha" maskUnits="userSpaceOnUse" x="0" y="0" width="64" height="64">
<rect x="64" y="64" width="64" height="64" transform="rotate(-180 64 64)" fill="#BFD1FC"/>
</mask>
<g mask="url(#mask0_9538_20480)">
<g filter="url(#filter0_f_9538_20480)">
<ellipse cx="31.0775" cy="23.9347" rx="31.0775" ry="23.9347" transform="matrix(-0.935324 -0.353792 -0.2194 -0.975635 42.5547 34.293)" fill="#6058E9"/>
</g>
<g filter="url(#filter1_f_9538_20480)">
<ellipse cx="31.0775" cy="23.9347" rx="31.0775" ry="23.9347" transform="matrix(-0.935324 -0.353792 -0.2194 -0.975635 82.875 75.5732)" fill="#6058E9"/>
</g>
<g filter="url(#filter2_f_9538_20480)">
<ellipse cx="50.3745" cy="54.191" rx="35.9223" ry="14.9809" transform="rotate(-180 50.3745 54.191)" fill="#4F46E8"/>
</g>
<g filter="url(#filter3_f_9538_20480)">
<ellipse cx="11.2668" cy="59.1175" rx="44.1059" ry="18.9769" transform="rotate(157.039 11.2668 59.1175)" fill="#3D2BE2"/>
</g>
<g filter="url(#filter4_f_9538_20480)">
<path d="M58.6421 19.7137C69.0376 26.3417 73.1634 38.4059 74.0069 39.663L66.7033 49.7418C47.4189 36.5048 8.58222 9.80403 7.51116 8.89715C6.4401 7.99028 12.582 -2.07421 15.7868 -6.9931C18.257 -10.0866 24.6784 -15.1745 30.6028 -10.7776C30.9527 -10.5179 31.2719 -10.2812 31.5624 -10.066C31.5374 -10.1206 31.5132 -10.1735 31.49 -10.2247C33.5344 -8.67423 36.1912 -6.63817 31.5624 -10.066C32.8703 -7.21979 36.7084 0.230932 42.247 8.61541C49.303 19.2969 48.2465 13.0857 58.6421 19.7137Z" fill="#728EFC"/>
</g>
<g filter="url(#filter5_f_9538_20480)">
<ellipse cx="41.2977" cy="21.3893" rx="41.2977" ry="21.3893" transform="matrix(-0.936194 -0.351484 0.645096 -0.764102 94.7656 83.7983)" fill="#241B63"/>
</g>
</g>
</g>
<path d="M21.1228 27.3374V25.4327C21.1228 25.3144 21.1051 25.1961 21.077 25.0689C21.077 25.06 21.0681 25.0408 21.0592 25.0231C20.904 24.4212 20.4115 23.8563 19.857 23.6744L15.592 22.2799C14.69 21.9708 14.8452 20.6857 15.8656 20.6857H20.9868V18.2412H13.9964C13.0662 18.2412 12.2455 18.9436 12.0458 19.8265C12.0177 19.9537 12 20.1001 12 20.2361V22.1409C12 22.2044 12 22.268 12.0177 22.3316C12.0177 22.3405 12.0177 22.3582 12.0266 22.3775C12.1183 23.0429 12.6462 23.6995 13.2659 23.8992L17.55 25.2937C18.461 25.585 18.3249 26.8879 17.303 26.8879H12.1361V29.3309H19.1264C20.0566 29.3309 20.8862 28.6196 21.077 27.7264C21.1051 27.5992 21.1228 27.4616 21.1228 27.3345V27.3374Z" fill="#EDECDC"/>
<path d="M32.0995 20.2396C32.0995 19.1733 31.1708 18.2446 30.1046 18.2446H24.3387C23.2724 18.2446 22.3438 19.1733 22.3438 20.2396V33.0831H25.0041V30.4434C25.0041 29.843 25.5143 29.3328 26.1147 29.3328H30.1046C30.8603 29.3328 31.5435 28.8685 31.8807 28.2119C32.0167 27.9472 32.0995 27.647 32.0995 27.3379V20.2396ZM29.4406 25.1226C29.4406 25.9788 28.9127 26.7434 28.1747 27.1087C27.8834 27.2536 27.564 27.3364 27.2268 27.3364C26.7344 27.3364 26.2789 27.1723 25.9062 26.8898C25.7066 26.7345 25.5232 26.5438 25.3783 26.3249C25.3591 26.3071 25.3502 26.2879 25.3413 26.2702C25.1313 25.933 25.0041 25.5322 25.0041 25.1226V22.4533C25.0041 21.2599 26.0245 20.2396 27.2268 20.2396C28.4291 20.2396 29.4406 21.2599 29.4406 22.4533V25.1226Z" fill="#EDECDC"/>
<path d="M40.5373 18.2417H35.4339C34.9962 18.2417 34.5865 18.397 34.2494 18.6602C33.7569 19.0255 33.4375 19.6081 33.4375 20.2366V27.3364C33.4375 28.4027 34.3677 29.3329 35.4339 29.3329H42.4051V26.8898H37.0562C36.2177 26.8898 36.0166 25.8695 36.8107 25.5589L41.2945 23.7814C41.9865 23.5167 42.5337 22.6974 42.5337 21.9683V20.2366C42.5337 19.1704 41.6035 18.2402 40.5373 18.2402V18.2417ZM37.8133 23.3451C36.8831 23.3451 36.0816 22.4978 36.0816 21.5676C36.0816 20.5916 36.8831 19.79 37.8133 19.79C38.7879 19.79 39.6264 20.5916 39.6264 21.5676C39.6264 22.5436 38.7879 23.3451 37.8133 23.3451Z" fill="#EDECDC"/>
<path d="M47.6945 20.6842H51.9963V18.2412H45.6995C44.6333 18.2412 43.7031 19.1714 43.7031 20.2376V27.3374C43.7031 28.4036 44.6333 29.3338 45.6995 29.3338H51.9963V26.8908H47.6945C46.9565 26.8908 46.3635 26.2978 46.3635 25.5599V22.0152C46.3635 21.2772 46.9565 20.6842 47.6945 20.6842Z" fill="#EDECDC"/>
<path d="M14.7902 33.2988V30.8721H12.1328V43.7186C12.1328 44.7833 13.0615 45.712 14.1263 45.712H19.4544V43.2734H16.1197C15.3921 43.2734 14.7917 42.673 14.7917 41.9455V38.3963C14.7917 37.6687 15.3921 37.0683 16.1197 37.0683H19.4544V34.6297H16.1197C15.3921 34.6297 14.7917 34.0382 14.7917 33.3018L14.7902 33.2988Z" fill="#EDECDC"/>
<path d="M28.5387 34.6226H22.7698C21.7036 34.6226 20.7734 35.5616 20.7734 36.6278V43.7276C20.7734 44.7939 21.7036 45.724 22.7698 45.724H28.5387C29.6049 45.724 30.5351 44.7939 30.5351 43.7276V36.6278C30.5351 35.5616 29.6049 34.6226 28.5387 34.6226ZM27.8747 41.5035C27.8747 42.7073 26.8543 43.7276 25.6595 43.7276C24.4646 43.7276 23.4353 42.7073 23.4353 41.5035V38.8431C23.4353 37.6497 24.4557 36.6278 25.6595 36.6278C26.8632 36.6278 27.8747 37.6482 27.8747 38.8431V41.5035Z" fill="#EDECDC"/>
<path d="M38.9987 33.5236C38.9987 34.1151 38.4885 34.6253 37.8969 34.6253H33.8997C32.8438 34.6253 31.9062 35.5629 31.9062 36.6276V43.72C31.9062 44.7848 32.8438 45.7135 33.8997 45.7135H39.6627C40.7274 45.7135 41.6665 44.7848 41.6665 43.72V30.875H38.9987V33.5221V33.5236ZM38.9987 41.4988C38.9987 42.7011 37.9798 43.72 36.7864 43.72C35.5929 43.72 34.5652 42.7011 34.5652 41.4988V38.8399C34.5652 37.6465 35.5841 36.6276 36.7864 36.6276C37.9886 36.6276 38.9987 37.648 38.9987 38.8399V41.4988Z" fill="#EDECDC"/>
<path d="M49.9826 34.6226H43.0115V37.0641H48.3604C49.2077 37.0641 49.4088 38.0845 48.6058 38.395L44.1221 40.1726C43.4388 40.4373 42.8828 41.2565 42.8828 41.9959V43.7276C42.8828 44.7939 43.813 45.724 44.8792 45.724H49.9826C51.0488 45.724 51.979 44.7939 51.979 43.7276V36.6278C51.979 35.5616 51.0488 34.6226 49.9826 34.6226ZM47.6032 44.1639C46.6287 44.1639 45.7902 43.3712 45.7902 42.3952C45.7902 41.4192 46.6287 40.6177 47.6032 40.6177C48.5777 40.6177 49.3349 41.4562 49.3349 42.3952C49.3349 43.3343 48.5422 44.1639 47.6032 44.1639Z" fill="#EDECDC"/>
</g>
<defs>
<filter id="filter0_f_9538_20480" x="-39.2515" y="-43.817" width="94.9796" height="87.527" filterUnits="userSpaceOnUse" color-interpolation-filters="sRGB">
<feFlood flood-opacity="0" result="BackgroundImageFix"/>
<feBlend mode="normal" in="SourceGraphic" in2="BackgroundImageFix" result="shape"/>
<feGaussianBlur stdDeviation="8.97342" result="effect1_foregroundBlur_9538_20480"/>
</filter>
<filter id="filter1_f_9538_20480" x="1.06878" y="-2.53669" width="94.9796" height="87.527" filterUnits="userSpaceOnUse" color-interpolation-filters="sRGB">
<feFlood flood-opacity="0" result="BackgroundImageFix"/>
<feBlend mode="normal" in="SourceGraphic" in2="BackgroundImageFix" result="shape"/>
<feGaussianBlur stdDeviation="8.97342" result="effect1_foregroundBlur_9538_20480"/>
</filter>
<filter id="filter2_f_9538_20480" x="-3.49372" y="21.2631" width="107.737" height="65.8556" filterUnits="userSpaceOnUse" color-interpolation-filters="sRGB">
<feFlood flood-opacity="0" result="BackgroundImageFix"/>
<feBlend mode="normal" in="SourceGraphic" in2="BackgroundImageFix" result="shape"/>
<feGaussianBlur stdDeviation="8.97342" result="effect1_foregroundBlur_9538_20480"/>
</filter>
<filter id="filter3_f_9538_20480" x="-49.909" y="14.7092" width="122.349" height="88.817" filterUnits="userSpaceOnUse" color-interpolation-filters="sRGB">
<feFlood flood-opacity="0" result="BackgroundImageFix"/>
<feBlend mode="normal" in="SourceGraphic" in2="BackgroundImageFix" result="shape"/>
<feGaussianBlur stdDeviation="9.94279" result="effect1_foregroundBlur_9538_20480"/>
</filter>
<filter id="filter4_f_9538_20480" x="-10.5562" y="-30.439" width="102.511" height="98.1276" filterUnits="userSpaceOnUse" color-interpolation-filters="sRGB">
<feFlood flood-opacity="0" result="BackgroundImageFix"/>
<feBlend mode="normal" in="SourceGraphic" in2="BackgroundImageFix" result="shape"/>
<feGaussianBlur stdDeviation="8.97342" result="effect1_foregroundBlur_9538_20480"/>
</filter>
<filter id="filter5_f_9538_20480" x="10.8891" y="13.1332" width="118.019" height="79.6119" filterUnits="userSpaceOnUse" color-interpolation-filters="sRGB">
<feFlood flood-opacity="0" result="BackgroundImageFix"/>
<feBlend mode="normal" in="SourceGraphic" in2="BackgroundImageFix" result="shape"/>
<feGaussianBlur stdDeviation="8.97342" result="effect1_foregroundBlur_9538_20480"/>
</filter>
<clipPath id="clip0_9538_20480">
<rect width="64" height="64" rx="10" fill="white"/>
</clipPath>
<clipPath id="clip1_9538_20480">
<rect width="64" height="64" fill="white"/>
</clipPath>
</defs>
</svg>
